<?xml version="1.0" standalone="no"?>
<!DOCTYPE svg PUBLIC "-//W3C//DTD SVG 20010904//EN"
 "http://www.w3.org/TR/2001/REC-SVG-20010904/DTD/svg10.dtd">
<svg version="1.0" xmlns="http://www.w3.org/2000/svg"
 width="984.000000pt" height="984.000000pt" viewBox="0 0 984.000000 984.000000"
 preserveAspectRatio="xMidYMid meet">

<g transform="translate(0.000000,984.000000) scale(0.100000,-0.100000)"
fill="#000000" stroke="none">
<path d="M0 4920 l0 -4920 4920 0 4920 0 0 4920 0 4920 -4920 0 -4920 0 0
-4920z m3690 3535 l0 -156 -152 3 -153 3 -3 153 -3 152 156 0 155 0 0 -155z
m1840 0 l0 -155 -150 0 -150 0 0 155 0 155 150 0 150 0 0 -155z m-610 -310 l0
-155 305 0 305 0 0 -150 0 -150 310 0 310 0 0 -155 0 -155 155 0 155 0 0 -155
0 -155 150 0 150 0 0 -1845 0 -1845 310 0 310 0 0 -150 0 -150 -155 0 -155 0
0 -155 0 -155 -155 0 -156 0 1 -152 c1 -84 1 -291 0 -460 l0 -308 -150 0 -150
0 0 305 0 305 -155 0 -155 0 0 -155 0 -155 -310 0 -310 0 0 -150 0 -150 -1075
0 -1075 0 0 -155 0 -155 -155 0 -155 0 0 -155 0 -155 -305 0 -305 0 0 163 c-1
89 -1 226 0 304 l1 142 -153 3 -153 3 -2 130 c-1 72 -2 210 -3 308 l0 177
-150 0 -149 0 -3 153 -3 152 -152 3 -153 3 0 304 0 305 -155 0 -155 0 0 1385
0 1385 155 0 155 0 0 305 0 305 155 0 155 0 0 310 0 310 150 0 149 0 3 153 3
152 153 3 152 3 0 -311 0 -310 155 0 155 0 0 310 0 310 155 0 155 0 0 150 0
150 460 0 460 0 0 155 0 155 460 0 460 0 0 -155z m1530 5 l0 -150 -305 0 -305
0 0 150 0 150 305 0 305 0 0 -150z m930 -2150 l0 -460 -155 0 -155 0 0 453 c0
250 3 457 7 460 3 4 73 7 155 7 l148 0 0 -460z m-5517 -3690 l2 -133 138 1
c79 0 137 -4 137 -9 0 -6 -60 -9 -145 -8 l-145 1 0 146 c0 80 3 143 6 140 3
-4 6 -66 7 -138z m29 115 c3 -13 1 -22 -3 -19 -9 5 -13 44 -5 44 2 0 6 -11 8
-25z m25 3 c-3 -8 -6 -5 -6 6 -1 11 2 17 5 13 3 -3 4 -12 1 -19z m210 -155
c-2 -21 -4 -4 -4 37 0 41 2 58 4 38 2 -21 2 -55 0 -75z m0 -65 c-3 -8 -6 -5
-6 6 -1 11 2 17 5 13 3 -3 4 -12 1 -19z m51 -498 c1 -60 -2 -110 -6 -110 -4 0
-9 50 -11 110 -1 61 1 110 6 110 5 0 10 -49 11 -110z m262 100 c0 -5 -4 -10
-10 -10 -5 0 -10 5 -10 10 0 6 5 10 10 10 6 0 10 -4 10 -10z m0 -190 c0 -5 -4
-10 -10 -10 -5 0 -10 5 -10 10 0 6 5 10 10 10 6 0 10 -4 10 -10z m-145 -69
c92 -1 116 1 112 11 -3 8 5 14 22 15 24 1 24 0 8 -12 -18 -13 -18 -13 0 -18
10 -3 -48 -5 -129 -6 l-148 -1 1 28 c0 25 1 25 9 6 8 -21 16 -22 125 -23z"/>
<path d="M2150 6455 l0 -615 -155 0 -155 0 0 -150 0 -150 -150 0 -150 0 0
-770 0 -770 150 0 150 0 0 -155 0 -155 310 0 310 0 0 1690 0 1690 -155 0 -155
0 0 -615z"/>
<path d="M2770 4920 l0 -310 305 0 305 0 0 155 0 155 -155 0 -155 0 0 155 0
155 -150 0 -150 0 0 -310z"/>
<path d="M4920 4920 l0 -310 305 0 305 0 0 155 0 155 -156 0 c-142 0 -155 2
-153 18 1 9 1 79 0 155 l-1 137 -150 0 -150 0 0 -310z"/>
<path d="M2474 1516 c-3 -8 -4 -72 -2 -142 l3 -129 143 -3 c101 -2 142 1 142
9 0 6 -9 9 -20 6 -11 -3 -20 -1 -20 4 0 5 9 9 20 9 19 0 20 7 20 130 l0 130
-140 0 c-111 0 -142 -3 -146 -14z"/>
</g>
</svg>
