<?xml version="1.0" encoding="UTF-8"?>
<!DOCTYPE svg PUBLIC "-//W3C//DTD SVG 1.1//EN" "http://www.w3.org/Graphics/SVG/1.1/DTD/svg11.dtd">
<svg xmlns="http://www.w3.org/2000/svg" version="1.1" width="500px" height="500px" style="shape-rendering:geometricPrecision; text-rendering:geometricPrecision; image-rendering:optimizeQuality; fill-rule:evenodd; clip-rule:evenodd" xmlns:xlink="http://www.w3.org/1999/xlink">
<g><path style="opacity:0.004" fill="#000000" d="M 11.5,-0.5 C 11.8333,-0.5 12.1667,-0.5 12.5,-0.5C 12.3147,0.170143 11.9813,0.170143 11.5,-0.5 Z"/></g>
<g><path style="opacity:0.004" fill="#000000" d="M 354.5,-0.5 C 354.833,-0.5 355.167,-0.5 355.5,-0.5C 355.315,0.170143 354.981,0.170143 354.5,-0.5 Z"/></g>
<g><path style="opacity:0.004" fill="#000000" d="M 209.5,0.5 C 210.833,1.16667 210.833,1.16667 209.5,0.5 Z"/></g>
<g><path style="opacity:0.004" fill="#000000" d="M 415.5,4.5 C 416.833,5.16667 416.833,5.16667 415.5,4.5 Z"/></g>
<g><path style="opacity:0.004" fill="#000000" d="M 396.5,5.5 C 397.833,6.16667 397.833,6.16667 396.5,5.5 Z"/></g>
<g><path style="opacity:0.004" fill="#000000" d="M 294.5,6.5 C 295.833,7.16667 295.833,7.16667 294.5,6.5 Z"/></g>
<g><path style="opacity:0.004" fill="#000000" d="M 466.5,6.5 C 467.833,7.16667 467.833,7.16667 466.5,6.5 Z"/></g>
<g><path style="opacity:0.004" fill="#000000" d="M 144.5,7.5 C 145.833,8.16667 145.833,8.16667 144.5,7.5 Z"/></g>
<g><path style="opacity:0.004" fill="#000000" d="M 15.5,8.5 C 16.8333,9.16667 16.8333,9.16667 15.5,8.5 Z"/></g>
<g><path style="opacity:0.004" fill="#000000" d="M 476.5,9.5 C 477.833,10.1667 477.833,10.1667 476.5,9.5 Z"/></g>
<g><path style="opacity:0.004" fill="#000000" d="M 181.5,10.5 C 182.833,11.1667 182.833,11.1667 181.5,10.5 Z"/></g>
<g><path style="opacity:0.004" fill="#000000" d="M 111.5,13.5 C 112.833,14.1667 112.833,14.1667 111.5,13.5 Z"/></g>
<g><path style="opacity:0.004" fill="#000000" d="M 24.5,14.5 C 25.8333,15.1667 25.8333,15.1667 24.5,14.5 Z"/></g>
<g><path style="opacity:0.004" fill="#000000" d="M 89.5,14.5 C 90.8333,15.1667 90.8333,15.1667 89.5,14.5 Z"/></g>
<g><path style="opacity:0.004" fill="#000000" d="M 143.5,14.5 C 144.833,15.1667 144.833,15.1667 143.5,14.5 Z"/></g>
<g><path style="opacity:0.004" fill="#000000" d="M 70.5,17.5 C 71.8333,18.1667 71.8333,18.1667 70.5,17.5 Z"/></g>
<g><path style="opacity:0.004" fill="#000000" d="M 107.5,20.5 C 108.833,21.1667 108.833,21.1667 107.5,20.5 Z"/></g>
<g><path style="opacity:0.004" fill="#000000" d="M 266.5,21.5 C 267.833,22.1667 267.833,22.1667 266.5,21.5 Z"/></g>
<g><path style="opacity:0.004" fill="#000000" d="M 381.5,21.5 C 382.833,22.1667 382.833,22.1667 381.5,21.5 Z"/></g>
<g><path style="opacity:0.004" fill="#000000" d="M 163.5,22.5 C 164.833,23.1667 164.833,23.1667 163.5,22.5 Z"/></g>
<g><path style="opacity:0.004" fill="#000000" d="M 420.5,22.5 C 421.833,23.1667 421.833,23.1667 420.5,22.5 Z"/></g>
<g><path style="opacity:0.004" fill="#000000" d="M 240.5,23.5 C 241.833,24.1667 241.833,24.1667 240.5,23.5 Z"/></g>
<g><path style="opacity:0.004" fill="#000000" d="M 391.5,28.5 C 392.833,29.1667 392.833,29.1667 391.5,28.5 Z"/></g>
<g><path style="opacity:0.004" fill="#000000" d="M 496.5,31.5 C 497.833,32.1667 497.833,32.1667 496.5,31.5 Z"/></g>
<g><path style="opacity:0.004" fill="#000000" d="M 63.5,35.5 C 64.8333,36.1667 64.8333,36.1667 63.5,35.5 Z"/></g>
<g><path style="opacity:0.004" fill="#fe0000" d="M 134.5,36.5 C 135.833,37.1667 135.833,37.1667 134.5,36.5 Z"/></g>
<g><path style="opacity:0.004" fill="#000000" d="M 184.5,36.5 C 185.833,37.1667 185.833,37.1667 184.5,36.5 Z"/></g>
<g><path style="opacity:0.004" fill="#000000" d="M 148.5,37.5 C 149.833,38.1667 149.833,38.1667 148.5,37.5 Z"/></g>
<g><path style="opacity:0.004" fill="#000000" d="M 190.5,38.5 C 191.833,39.1667 191.833,39.1667 190.5,38.5 Z"/></g>
<g><path style="opacity:0.004" fill="#000000" d="M 458.5,38.5 C 459.833,39.1667 459.833,39.1667 458.5,38.5 Z"/></g>
<g><path style="opacity:0.004" fill="#000000" d="M 46.5,39.5 C 47.8333,40.1667 47.8333,40.1667 46.5,39.5 Z"/></g>
<g><path style="opacity:0.004" fill="#000000" d="M 33.5,44.5 C 34.8333,45.1667 34.8333,45.1667 33.5,44.5 Z"/></g>
<g><path style="opacity:0.004" fill="#000000" d="M 424.5,44.5 C 425.833,45.1667 425.833,45.1667 424.5,44.5 Z"/></g>
<g><path style="opacity:0.004" fill="#000000" d="M 19.5,45.5 C 20.8333,46.1667 20.8333,46.1667 19.5,45.5 Z"/></g>
<g><path style="opacity:0.004" fill="#000000" d="M 327.5,45.5 C 328.833,46.1667 328.833,46.1667 327.5,45.5 Z"/></g>
<g><path style="opacity:0.004" fill="#000000" d="M 388.5,46.5 C 389.833,47.1667 389.833,47.1667 388.5,46.5 Z"/></g>
<g><path style="opacity:0.004" fill="#000000" d="M 10.5,51.5 C 11.8333,52.1667 11.8333,52.1667 10.5,51.5 Z"/></g>
<g><path style="opacity:0.004" fill="#000000" d="M 43.5,51.5 C 44.8333,52.1667 44.8333,52.1667 43.5,51.5 Z"/></g>
<g><path style="opacity:0.004" fill="#000000" d="M 199.5,53.5 C 200.833,54.1667 200.833,54.1667 199.5,53.5 Z"/></g>
<g><path style="opacity:0.004" fill="#000000" d="M 152.5,56.5 C 153.833,57.1667 153.833,57.1667 152.5,56.5 Z"/></g>
<g><path style="opacity:0.004" fill="#000000" d="M 404.5,56.5 C 405.833,57.1667 405.833,57.1667 404.5,56.5 Z"/></g>
<g><path style="opacity:0.004" fill="#000000" d="M 129.5,58.5 C 130.833,59.1667 130.833,59.1667 129.5,58.5 Z"/></g>
<g><path style="opacity:0.004" fill="#000000" d="M 283.5,58.5 C 284.833,59.1667 284.833,59.1667 283.5,58.5 Z"/></g>
<g><path style="opacity:0.004" fill="#000000" d="M 440.5,61.5 C 441.833,62.1667 441.833,62.1667 440.5,61.5 Z"/></g>
<g><path style="opacity:0.118" fill="#100a07" d="M 374.5,170.5 C 369.167,170.5 363.833,170.5 358.5,170.5C 358.5,155.167 358.5,139.833 358.5,124.5C 353.5,124.5 348.5,124.5 343.5,124.5C 343.5,119.167 343.5,113.833 343.5,108.5C 343.5,103.5 343.5,98.5 343.5,93.5C 338.167,93.5 332.833,93.5 327.5,93.5C 327.5,88.1667 327.5,82.8333 327.5,77.5C 317.167,77.5 306.833,77.5 296.5,77.5C 291.5,77.5 286.5,77.5 281.5,77.5C 281.821,72.3054 281.487,67.3054 280.5,62.5C 262.504,62.5264 244.504,62.1931 226.5,61.5C 244.662,60.3379 262.995,60.1712 281.5,61C 282.471,66.0717 282.805,71.2384 282.5,76.5C 297.848,76.1673 313.181,76.5006 328.5,77.5C 329.833,81.8333 329.833,86.1667 328.5,90.5C 333.718,91.189 338.884,91.8557 344,92.5C 344.333,102.5 344.667,112.5 345,122.5C 348.694,122.556 352.527,122.723 356.5,123C 357.766,123.309 358.933,123.809 360,124.5C 360.5,139.496 360.667,154.496 360.5,169.5C 365.363,169.181 370.03,169.514 374.5,170.5 Z"/></g>
<g><path style="opacity:1" fill="#614c38" d="M 171.5,62.5 C 176.64,61.5119 181.974,61.1786 187.5,61.5C 187.821,67.0262 187.488,72.3595 186.5,77.5C 186.5,72.5 186.5,67.5 186.5,62.5C 181.5,62.5 176.5,62.5 171.5,62.5 Z"/></g>
<g><path style="opacity:0.004" fill="#000000" d="M 382.5,67.5 C 383.833,68.1667 383.833,68.1667 382.5,67.5 Z"/></g>
<g><path style="opacity:0.004" fill="#000000" d="M 14.5,69.5 C 15.8333,70.1667 15.8333,70.1667 14.5,69.5 Z"/></g>
<g><path style="opacity:1" fill="#b59362" d="M 171.5,62.5 C 176.5,62.5 181.5,62.5 186.5,62.5C 186.5,67.5 186.5,72.5 186.5,77.5C 181.305,77.8205 176.305,77.4872 171.5,76.5C 171.5,71.8333 171.5,67.1667 171.5,62.5 Z"/></g>
<g><path style="opacity:0.004" fill="#000000" d="M 293.5,73.5 C 294.833,74.1667 294.833,74.1667 293.5,73.5 Z"/></g>
<g><path style="opacity:0.004" fill="#000000" d="M 487.5,73.5 C 488.833,74.1667 488.833,74.1667 487.5,73.5 Z"/></g>
<g><path style="opacity:0.004" fill="#000000" d="M 439.5,76.5 C 440.833,77.1667 440.833,77.1667 439.5,76.5 Z"/></g>
<g><path style="opacity:0.004" fill="#000000" d="M 31.5,80.5 C 32.8333,81.1667 32.8333,81.1667 31.5,80.5 Z"/></g>
<g><path style="opacity:1" fill="#b7925c" d="M 280.5,93.5 C 280.5,98.8333 280.5,104.167 280.5,109.5C 290.833,109.5 301.167,109.5 311.5,109.5C 311.179,114.695 311.513,119.695 312.5,124.5C 317.5,124.5 322.5,124.5 327.5,124.5C 327.5,129.5 327.5,134.5 327.5,139.5C 332.305,140.487 337.305,140.821 342.5,140.5C 342.168,203.002 342.501,265.336 343.5,327.5C 353.319,328.494 363.319,328.827 373.5,328.5C 373.5,333.167 373.5,337.833 373.5,342.5C 363.165,342.792 352.832,343.125 342.5,343.5C 342.666,348.179 342.499,352.845 342,357.5C 341,358.167 340,358.833 339,359.5C 335.41,359.128 331.91,359.128 328.5,359.5C 327.501,348.854 327.168,338.187 327.5,327.5C 327.5,306.833 327.5,286.167 327.5,265.5C 327.5,260.167 327.5,254.833 327.5,249.5C 327.5,244.167 327.5,238.833 327.5,233.5C 327.5,228.5 327.5,223.5 327.5,218.5C 322.5,218.5 317.5,218.5 312.5,218.5C 312.167,218.5 311.833,218.5 311.5,218.5C 306.695,217.513 301.695,217.179 296.5,217.5C 296.5,212.5 296.5,207.5 296.5,202.5C 291.167,202.5 285.833,202.5 280.5,202.5C 264.798,202.787 249.131,202.454 233.5,201.5C 233.71,196.802 233.876,192.136 234,187.5C 233.586,187.043 233.086,186.709 232.5,186.5C 229.164,186.977 225.998,187.977 223,189.5C 221.139,188.391 220.305,186.725 220.5,184.5C 220.431,165.887 220.598,147.22 221,128.5C 222.688,127.675 222.855,126.675 221.5,125.5C 220.313,124.481 219.313,123.314 218.5,122C 214.833,121.667 211.167,121.333 207.5,121C 206.285,118.904 205.451,119.071 205,121.5C 204.107,120.289 203.274,120.289 202.5,121.5C 201.752,123.332 200.752,124.999 199.5,126.5C 200.474,136.113 200.808,145.78 200.5,155.5C 190.833,155.5 181.167,155.5 171.5,155.5C 170.993,164.854 170.16,174.187 169,183.5C 168.196,184.804 167.029,185.471 165.5,185.5C 162.536,184.528 159.536,184.362 156.5,185C 155.944,185.383 155.611,185.883 155.5,186.5C 155.5,191.833 155.5,197.167 155.5,202.5C 145.167,202.5 134.833,202.5 124.5,202.5C 124.5,181.833 124.5,161.167 124.5,140.5C 129.833,140.5 135.167,140.5 140.5,140.5C 140.5,130.167 140.5,119.833 140.5,109.5C 145.695,109.821 150.695,109.487 155.5,108.5C 155.5,103.5 155.5,98.5 155.5,93.5C 171.167,93.5 186.833,93.5 202.5,93.5C 202.5,88.1667 202.5,82.8333 202.5,77.5C 218.167,77.5 233.833,77.5 249.5,77.5C 249.5,82.8333 249.5,88.1667 249.5,93.5C 259.833,93.5 270.167,93.5 280.5,93.5 Z"/></g>
<g><path style="opacity:0.004" fill="#000000" d="M 44.5,84.5 C 45.8333,85.1667 45.8333,85.1667 44.5,84.5 Z"/></g>
<g><path style="opacity:1" fill="#9e8158" d="M 296.5,77.5 C 306.833,77.5 317.167,77.5 327.5,77.5C 327.5,82.8333 327.5,88.1667 327.5,93.5C 317.167,93.5 306.833,93.5 296.5,93.5C 296.5,88.1667 296.5,82.8333 296.5,77.5 Z"/></g>
<g><path style="opacity:1" fill="#b6925d" d="M 299.5,78.5 C 303.767,78.203 307.934,78.5363 312,79.5C 311.633,83.7462 311.467,88.0796 311.5,92.5C 306.833,92.5 302.167,92.5 297.5,92.5C 296.962,87.5329 297.629,82.8662 299.5,78.5 Z"/></g>
<g><path style="opacity:0.004" fill="#000000" d="M 115.5,85.5 C 116.833,86.1667 116.833,86.1667 115.5,85.5 Z"/></g>
<g><path style="opacity:0.004" fill="#000000" d="M 36.5,91.5 C 37.8333,92.1667 37.8333,92.1667 36.5,91.5 Z"/></g>
<g><path style="opacity:0.004" fill="#000000" d="M 73.5,91.5 C 74.8333,92.1667 74.8333,92.1667 73.5,91.5 Z"/></g>
<g><path style="opacity:0.004" fill="#000000" d="M 12.5,93.5 C 13.8333,94.1667 13.8333,94.1667 12.5,93.5 Z"/></g>
<g><path style="opacity:0.004" fill="#000000" d="M 120.5,94.5 C 121.833,95.1667 121.833,95.1667 120.5,94.5 Z"/></g>
<g><path style="opacity:0.004" fill="#000000" d="M 466.5,95.5 C 467.833,96.1667 467.833,96.1667 466.5,95.5 Z"/></g>
<g><path style="opacity:0.004" fill="#000000" d="M 75.5,97.5 C 76.8333,98.1667 76.8333,98.1667 75.5,97.5 Z"/></g>
<g><path style="opacity:0.004" fill="#000000" d="M 77.5,99.5 C 78.8333,100.167 78.8333,100.167 77.5,99.5 Z"/></g>
<g><path style="opacity:0.969" fill="#735e40" d="M 327.5,93.5 C 332.833,93.5 338.167,93.5 343.5,93.5C 343.5,98.5 343.5,103.5 343.5,108.5C 338.167,108.5 332.833,108.5 327.5,108.5C 327.5,103.5 327.5,98.5 327.5,93.5 Z"/></g>
<g><path style="opacity:0.004" fill="#000000" d="M 355.5,110.5 C 356.833,111.167 356.833,111.167 355.5,110.5 Z"/></g>
<g><path style="opacity:1" fill="#755e3c" d="M 124.5,108.5 C 124.5,108.833 124.5,109.167 124.5,109.5C 119.167,109.5 113.833,109.5 108.5,109.5C 108.5,114.5 108.5,119.5 108.5,124.5C 103.5,124.5 98.5,124.5 93.5,124.5C 93.5,119.167 93.5,113.833 93.5,108.5C 103.833,108.5 114.167,108.5 124.5,108.5 Z"/></g>
<g><path style="opacity:0.004" fill="#000000" d="M 34.5,120.5 C 35.8333,121.167 35.8333,121.167 34.5,120.5 Z"/></g>
<g><path style="opacity:0.004" fill="#000000" d="M 382.5,120.5 C 383.833,121.167 383.833,121.167 382.5,120.5 Z"/></g>
<g><path style="opacity:0.004" fill="#000000" d="M 74.5,122.5 C 75.8333,123.167 75.8333,123.167 74.5,122.5 Z"/></g>
<g><path style="opacity:1" fill="#ad8b5c" d="M 124.5,109.5 C 124.5,119.5 124.5,129.5 124.5,139.5C 119.167,139.5 113.833,139.5 108.5,139.5C 108.5,160.5 108.5,181.5 108.5,202.5C 103.5,202.5 98.5,202.5 93.5,202.5C 93.5,207.833 93.5,213.167 93.5,218.5C 88.1667,218.5 82.8333,218.5 77.5,218.5C 77.5,217.5 77.5,216.5 77.5,215.5C 82.1191,216.314 86.7858,216.647 91.5,216.5C 91.334,211.156 91.5006,205.823 92,200.5C 96.7079,200.265 101.541,200.265 106.5,200.5C 106.333,179.831 106.5,159.164 107,138.5C 107.849,135.479 109.349,134.979 111.5,137C 115.114,137.936 118.78,138.436 122.5,138.5C 122.5,133.833 122.5,129.167 122.5,124.5C 120.473,124.662 118.473,124.495 116.5,124C 117.296,121.681 116.796,119.514 115,117.5C 114.749,119.433 114.249,121.266 113.5,123C 114.075,125.141 114.408,127.641 114.5,130.5C 112.08,130.292 109.747,130.626 107.5,131.5C 106.454,134.428 104.788,136.928 102.5,139C 102.833,139.333 103.167,139.667 103.5,140C 102.151,140.772 101.318,141.939 101,143.5C 100.88,149.294 100.046,154.961 98.5,160.5C 97.9604,154.356 97.1271,148.356 96,142.5C 94.8483,151.667 93.8483,161 93,170.5C 88.2633,171.469 83.43,171.803 78.5,171.5C 78.8205,176.695 78.4872,181.695 77.5,186.5C 77.5,176.167 77.5,165.833 77.5,155.5C 82.7616,155.805 87.9283,155.471 93,154.5C 93.4998,144.506 93.6665,134.506 93.5,124.5C 98.5,124.5 103.5,124.5 108.5,124.5C 108.5,119.5 108.5,114.5 108.5,109.5C 113.833,109.5 119.167,109.5 124.5,109.5 Z"/></g>
<g><path style="opacity:0.998" fill="#282323" d="M 187.5,61.5 C 200.513,61.6068 213.513,61.6068 226.5,61.5C 244.504,62.1931 262.504,62.5264 280.5,62.5C 281.487,67.3054 281.821,72.3054 281.5,77.5C 286.5,77.5 291.5,77.5 296.5,77.5C 296.5,82.8333 296.5,88.1667 296.5,93.5C 306.833,93.5 317.167,93.5 327.5,93.5C 327.5,98.5 327.5,103.5 327.5,108.5C 332.833,108.5 338.167,108.5 343.5,108.5C 343.5,113.833 343.5,119.167 343.5,124.5C 348.5,124.5 353.5,124.5 358.5,124.5C 358.5,139.833 358.5,155.167 358.5,170.5C 363.833,170.5 369.167,170.5 374.5,170.5C 375.38,172.137 376.046,173.97 376.5,176C 376.433,194.319 376.266,212.819 376,231.5C 380.934,232.144 385.767,232.81 390.5,233.5C 390.5,259.5 390.5,285.5 390.5,311.5C 385.167,311.5 379.833,311.5 374.5,311.5C 374.5,316.5 374.5,321.5 374.5,326.5C 366.925,326.362 359.258,326.195 351.5,326C 348.953,325.933 346.786,325.099 345,323.5C 344.172,262.972 344.339,202.472 345.5,142C 345.361,140.699 344.695,139.866 343.5,139.5C 338.167,139.5 332.833,139.5 327.5,139.5C 327.5,134.5 327.5,129.5 327.5,124.5C 322.5,124.5 317.5,124.5 312.5,124.5C 312.5,119.167 312.5,113.833 312.5,108.5C 302.167,108.5 291.833,108.5 281.5,108.5C 281.821,103.305 281.487,98.3054 280.5,93.5C 270.167,93.5 259.833,93.5 249.5,93.5C 249.5,88.1667 249.5,82.8333 249.5,77.5C 233.833,77.5 218.167,77.5 202.5,77.5C 202.5,82.8333 202.5,88.1667 202.5,93.5C 186.833,93.5 171.167,93.5 155.5,93.5C 155.5,98.5 155.5,103.5 155.5,108.5C 150.167,108.5 144.833,108.5 139.5,108.5C 139.5,118.833 139.5,129.167 139.5,139.5C 134.5,139.5 129.5,139.5 124.5,139.5C 124.5,129.5 124.5,119.5 124.5,109.5C 124.5,109.167 124.5,108.833 124.5,108.5C 124.334,103.821 124.501,99.1548 125,94.5C 129.414,93.6971 133.914,93.1971 138.5,93C 140.833,90.4786 141.166,87.6453 139.5,84.5C 139.94,82.2351 140.606,80.0684 141.5,78C 151.577,77.8087 161.577,77.3087 171.5,76.5C 176.305,77.4872 181.305,77.8205 186.5,77.5C 187.488,72.3595 187.821,67.0262 187.5,61.5 Z"/></g>
<g><path style="opacity:1" fill="#705b44" d="M 280.5,93.5 C 281.487,98.3054 281.821,103.305 281.5,108.5C 291.833,108.5 302.167,108.5 312.5,108.5C 312.5,113.833 312.5,119.167 312.5,124.5C 311.513,119.695 311.179,114.695 311.5,109.5C 301.167,109.5 290.833,109.5 280.5,109.5C 280.5,104.167 280.5,98.8333 280.5,93.5 Z"/></g>
<g><path style="opacity:1" fill="#b59263" d="M 280.5,62.5 C 280.5,67.5 280.5,72.5 280.5,77.5C 275.5,77.5 270.5,77.5 265.5,77.5C 265.5,72.5 265.5,67.5 265.5,62.5C 270.5,62.5 275.5,62.5 280.5,62.5 Z"/></g>
<g><path style="opacity:0.004" fill="#000000" d="M 365.5,130.5 C 366.833,131.167 366.833,131.167 365.5,130.5 Z"/></g>
<g><path style="opacity:0.004" fill="#000000" d="M 10.5,134.5 C 11.8333,135.167 11.8333,135.167 10.5,134.5 Z"/></g>
<g><path style="opacity:0.004" fill="#000000" d="M 480.5,138.5 C 481.833,139.167 481.833,139.167 480.5,138.5 Z"/></g>
<g><path style="opacity:1" fill="#2d2011" d="M 343.5,139.5 C 344.695,139.866 345.361,140.699 345.5,142C 344.339,202.472 344.172,262.972 345,323.5C 346.786,325.099 348.953,325.933 351.5,326C 359.258,326.195 366.925,326.362 374.5,326.5C 374.5,326.833 374.5,327.167 374.5,327.5C 364.167,327.5 353.833,327.5 343.5,327.5C 343.5,264.833 343.5,202.167 343.5,139.5 Z"/></g>
<g><path style="opacity:0.004" fill="#000000" d="M 496.5,141.5 C 497.833,142.167 497.833,142.167 496.5,141.5 Z"/></g>
<g><path style="opacity:0.004" fill="#000000" d="M 31.5,142.5 C 32.8333,143.167 32.8333,143.167 31.5,142.5 Z"/></g>
<g><path style="opacity:0.004" fill="#000000" d="M 69.5,142.5 C 70.8333,143.167 70.8333,143.167 69.5,142.5 Z"/></g>
<g><path style="opacity:1" fill="#282424" d="M 124.5,216.5 C 124.5,217.167 124.5,217.833 124.5,218.5C 124.5,223.5 124.5,228.5 124.5,233.5C 124.5,249.167 124.5,264.833 124.5,280.5C 124.5,290.833 124.5,301.167 124.5,311.5C 124.5,311.833 124.5,312.167 124.5,312.5C 114.167,312.5 103.833,312.5 93.5,312.5C 93.5,307.167 93.5,301.833 93.5,296.5C 88.6946,295.513 83.6946,295.179 78.5,295.5C 78.5,285.167 78.5,274.833 78.5,264.5C 83.5,264.5 88.5,264.5 93.5,264.5C 93.5,269.833 93.5,275.167 93.5,280.5C 98.5,280.5 103.5,280.5 108.5,280.5C 108.5,259.833 108.5,239.167 108.5,218.5C 103.5,218.5 98.5,218.5 93.5,218.5C 93.5,213.167 93.5,207.833 93.5,202.5C 98.5,202.5 103.5,202.5 108.5,202.5C 109.167,202.5 109.5,202.167 109.5,201.5C 110.376,201.631 111.043,201.298 111.5,200.5C 110.512,180.88 110.179,161.213 110.5,141.5C 114.182,141.335 117.848,141.501 121.5,142C 122,142.5 122.5,143 123,143.5C 123.168,168.003 123.668,192.337 124.5,216.5 Z"/></g>
<g><path style="opacity:1" fill="#d1af86" d="M 218.5,187.5 C 208.249,186.525 197.915,186.192 187.5,186.5C 187.5,181.5 187.5,176.5 187.5,171.5C 192.5,171.5 197.5,171.5 202.5,171.5C 202.5,155.833 202.5,140.167 202.5,124.5C 207.833,124.5 213.167,124.5 218.5,124.5C 218.5,145.5 218.5,166.5 218.5,187.5 Z"/></g>
<g><path style="opacity:1" fill="#69553a" d="M 155.5,108.5 C 150.695,109.487 145.695,109.821 140.5,109.5C 140.5,119.833 140.5,130.167 140.5,140.5C 135.167,140.5 129.833,140.5 124.5,140.5C 119.5,140.5 114.5,140.5 109.5,140.5C 109.5,160.833 109.5,181.167 109.5,201.5C 109.5,202.167 109.167,202.5 108.5,202.5C 108.5,181.5 108.5,160.5 108.5,139.5C 113.833,139.5 119.167,139.5 124.5,139.5C 129.5,139.5 134.5,139.5 139.5,139.5C 139.5,129.167 139.5,118.833 139.5,108.5C 144.833,108.5 150.167,108.5 155.5,108.5 Z"/></g>
<g><path style="opacity:1" fill="#291c0f" d="M 124.5,140.5 C 124.5,161.167 124.5,181.833 124.5,202.5C 124.5,207.167 124.5,211.833 124.5,216.5C 123.668,192.337 123.168,168.003 123,143.5C 122.5,143 122,142.5 121.5,142C 117.848,141.501 114.182,141.335 110.5,141.5C 110.179,161.213 110.512,180.88 111.5,200.5C 111.043,201.298 110.376,201.631 109.5,201.5C 109.5,181.167 109.5,160.833 109.5,140.5C 114.5,140.5 119.5,140.5 124.5,140.5 Z"/></g>
<g><path style="opacity:1" fill="#907756" d="M 327.5,139.5 C 332.833,139.5 338.167,139.5 343.5,139.5C 343.5,202.167 343.5,264.833 343.5,327.5C 342.501,265.336 342.168,203.002 342.5,140.5C 337.305,140.821 332.305,140.487 327.5,139.5 Z"/></g>
<g><path style="opacity:0.004" fill="#000000" d="M 12.5,149.5 C 13.8333,150.167 13.8333,150.167 12.5,149.5 Z"/></g>
<g><path style="opacity:0.004" fill="#000000" d="M 26.5,151.5 C 27.8333,152.167 27.8333,152.167 26.5,151.5 Z"/></g>
<g><path style="opacity:0.004" fill="#000000" d="M 463.5,151.5 C 464.833,152.167 464.833,152.167 463.5,151.5 Z"/></g>
<g><path style="opacity:0.004" fill="#000000" d="M 14.5,156.5 C 15.8333,157.167 15.8333,157.167 14.5,156.5 Z"/></g>
<g><path style="opacity:0.004" fill="#000000" d="M 5.5,158.5 C 6.83333,159.167 6.83333,159.167 5.5,158.5 Z"/></g>
<g><path style="opacity:0.004" fill="#000000" d="M 398.5,159.5 C 399.833,160.167 399.833,160.167 398.5,159.5 Z"/></g>
<g><path style="opacity:0.004" fill="#000000" d="M 50.5,160.5 C 51.8333,161.167 51.8333,161.167 50.5,160.5 Z"/></g>
<g><path style="opacity:0.004" fill="#000000" d="M 39.5,164.5 C 40.8333,165.167 40.8333,165.167 39.5,164.5 Z"/></g>
<g><path style="opacity:0.004" fill="#000000" d="M 66.5,164.5 C 67.8333,165.167 67.8333,165.167 66.5,164.5 Z"/></g>
<g><path style="opacity:0.004" fill="#000000" d="M 0.5,165.5 C 1.83333,166.167 1.83333,166.167 0.5,165.5 Z"/></g>
<g><path style="opacity:0.696" fill="#968265" d="M 374.5,218.5 C 369.167,218.5 363.833,218.5 358.5,218.5C 358.5,202.833 358.5,187.167 358.5,171.5C 363.833,171.5 369.167,171.5 374.5,171.5C 374.5,187.167 374.5,202.833 374.5,218.5 Z"/></g>
<g><path style="opacity:1" fill="#b7925d" d="M 360.5,172.5 C 364.767,172.203 368.934,172.536 373,173.5C 373.5,188.163 373.667,202.83 373.5,217.5C 368.833,217.5 364.167,217.5 359.5,217.5C 359.184,202.422 359.517,187.422 360.5,172.5 Z"/></g>
<g><path style="opacity:0.004" fill="#000000" d="M 491.5,176.5 C 492.833,177.167 492.833,177.167 491.5,176.5 Z"/></g>
<g><path style="opacity:0.004" fill="#000000" d="M 24.5,182.5 C 25.8333,183.167 25.8333,183.167 24.5,182.5 Z"/></g>
<g><path style="opacity:0.004" fill="#000000" d="M 396.5,182.5 C 397.833,183.167 397.833,183.167 396.5,182.5 Z"/></g>
<g><path style="opacity:0.004" fill="#000000" d="M 427.5,183.5 C 428.833,184.167 428.833,184.167 427.5,183.5 Z"/></g>
<g><path style="opacity:0.004" fill="#000000" d="M 398.5,184.5 C 399.833,185.167 399.833,185.167 398.5,184.5 Z"/></g>
<g><path style="opacity:1" fill="#ba9664" d="M 280.5,202.5 C 280.5,207.833 280.5,213.167 280.5,218.5C 275.5,218.5 270.5,218.5 265.5,218.5C 249.833,218.5 234.167,218.5 218.5,218.5C 218.5,208.167 218.5,197.833 218.5,187.5C 218.5,166.5 218.5,145.5 218.5,124.5C 213.167,124.5 207.833,124.5 202.5,124.5C 202.5,140.167 202.5,155.833 202.5,171.5C 197.5,171.5 192.5,171.5 187.5,171.5C 182.167,171.5 176.833,171.5 171.5,171.5C 171.5,176.5 171.5,181.5 171.5,186.5C 166.167,186.5 160.833,186.5 155.5,186.5C 155.611,185.883 155.944,185.383 156.5,185C 159.536,184.362 162.536,184.528 165.5,185.5C 167.029,185.471 168.196,184.804 169,183.5C 170.16,174.187 170.993,164.854 171.5,155.5C 181.167,155.5 190.833,155.5 200.5,155.5C 200.808,145.78 200.474,136.113 199.5,126.5C 200.752,124.999 201.752,123.332 202.5,121.5C 203.274,120.289 204.107,120.289 205,121.5C 205.451,119.071 206.285,118.904 207.5,121C 211.167,121.333 214.833,121.667 218.5,122C 219.313,123.314 220.313,124.481 221.5,125.5C 222.855,126.675 222.688,127.675 221,128.5C 220.598,147.22 220.431,165.887 220.5,184.5C 220.305,186.725 221.139,188.391 223,189.5C 225.998,187.977 229.164,186.977 232.5,186.5C 233.086,186.709 233.586,187.043 234,187.5C 233.876,192.136 233.71,196.802 233.5,201.5C 249.131,202.454 264.798,202.787 280.5,202.5 Z"/></g>
<g><path style="opacity:1" fill="#f5e4dc" d="M 202.5,232.5 C 197.489,232.334 192.489,232.501 187.5,233C 187,233.5 186.5,234 186,234.5C 185.179,241.679 185.345,248.679 186.5,255.5C 186.167,258.167 185.833,260.833 185.5,263.5C 181.016,263.27 176.683,263.27 172.5,263.5C 172.821,258.305 172.487,253.305 171.5,248.5C 171.5,243.5 171.5,238.5 171.5,233.5C 166.453,233.337 161.453,233.671 156.5,234.5C 156.5,233.833 156.167,233.5 155.5,233.5C 150.167,233.5 144.833,233.5 139.5,233.5C 139.5,232.833 139.5,232.167 139.5,231.5C 140.295,227.215 140.628,222.881 140.5,218.5C 145.5,218.5 150.5,218.5 155.5,218.5C 155.5,213.5 155.5,208.5 155.5,203.5C 155.5,203.167 155.5,202.833 155.5,202.5C 160.833,202.5 166.167,202.5 171.5,202.5C 171.5,197.5 171.5,192.5 171.5,187.5C 176.5,187.5 181.5,187.5 186.5,187.5C 186.5,192.5 186.5,197.5 186.5,202.5C 191.833,202.5 197.167,202.5 202.5,202.5C 202.5,212.5 202.5,222.5 202.5,232.5 Z"/></g>
<g><path style="opacity:0.004" fill="#000000" d="M 1.5,188.5 C 2.83333,189.167 2.83333,189.167 1.5,188.5 Z"/></g>
<g><path style="opacity:0.004" fill="#000000" d="M 29.5,200.5 C 30.8333,201.167 30.8333,201.167 29.5,200.5 Z"/></g>
<g><path style="opacity:0.004" fill="#000000" d="M 2.5,201.5 C 3.83333,202.167 3.83333,202.167 2.5,201.5 Z"/></g>
<g><path style="opacity:1" fill="#d1b18e" d="M 124.5,202.5 C 134.833,202.5 145.167,202.5 155.5,202.5C 155.5,202.833 155.5,203.167 155.5,203.5C 150.5,203.5 145.5,203.5 140.5,203.5C 140.5,208.5 140.5,213.5 140.5,218.5C 135.167,218.5 129.833,218.5 124.5,218.5C 124.5,217.833 124.5,217.167 124.5,216.5C 124.5,211.833 124.5,207.167 124.5,202.5 Z"/></g>
<g><path style="opacity:1" fill="#e4cec2" d="M 155.5,203.5 C 155.5,208.5 155.5,213.5 155.5,218.5C 150.5,218.5 145.5,218.5 140.5,218.5C 140.5,213.5 140.5,208.5 140.5,203.5C 145.5,203.5 150.5,203.5 155.5,203.5 Z"/></g>
<g><path style="opacity:1" fill="#d0af8a" d="M 280.5,202.5 C 285.833,202.5 291.167,202.5 296.5,202.5C 296.5,207.5 296.5,212.5 296.5,217.5C 301.695,217.179 306.695,217.513 311.5,218.5C 306.5,218.5 301.5,218.5 296.5,218.5C 296.5,223.167 296.5,227.833 296.5,232.5C 296.5,233.167 296.167,233.5 295.5,233.5C 285.828,233.666 276.161,233.5 266.5,233C 265.531,228.263 265.197,223.43 265.5,218.5C 270.5,218.5 275.5,218.5 280.5,218.5C 280.5,213.167 280.5,207.833 280.5,202.5 Z"/></g>
<g><path style="opacity:1" fill="#e4cdbe" d="M 187.5,171.5 C 187.5,176.5 187.5,181.5 187.5,186.5C 197.915,186.192 208.249,186.525 218.5,187.5C 218.5,197.833 218.5,208.167 218.5,218.5C 234.167,218.5 249.833,218.5 265.5,218.5C 265.197,223.43 265.531,228.263 266.5,233C 276.161,233.5 285.828,233.666 295.5,233.5C 295.5,233.833 295.5,234.167 295.5,234.5C 290.5,234.5 285.5,234.5 280.5,234.5C 275.5,234.5 270.5,234.5 265.5,234.5C 260.167,233.167 254.833,233.167 249.5,234.5C 249.5,239.5 249.5,244.5 249.5,249.5C 248.512,244.36 248.179,239.026 248.5,233.5C 243.266,232.198 237.933,232.198 232.5,233.5C 222.781,233.218 213.114,233.551 203.5,234.5C 203.167,233.833 202.833,233.167 202.5,232.5C 202.5,222.5 202.5,212.5 202.5,202.5C 197.167,202.5 191.833,202.5 186.5,202.5C 186.5,197.5 186.5,192.5 186.5,187.5C 181.5,187.5 176.5,187.5 171.5,187.5C 171.5,192.5 171.5,197.5 171.5,202.5C 166.167,202.5 160.833,202.5 155.5,202.5C 155.5,197.167 155.5,191.833 155.5,186.5C 160.833,186.5 166.167,186.5 171.5,186.5C 171.5,181.5 171.5,176.5 171.5,171.5C 176.833,171.5 182.167,171.5 187.5,171.5 Z"/></g>
<g><path style="opacity:0.004" fill="#000000" d="M 492.5,218.5 C 493.833,219.167 493.833,219.167 492.5,218.5 Z"/></g>
<g><path style="opacity:1" fill="#2a2423" d="M 77.5,218.5 C 82.8333,218.5 88.1667,218.5 93.5,218.5C 93.5,223.5 93.5,228.5 93.5,233.5C 88.1667,233.5 82.8333,233.5 77.5,233.5C 77.5,228.5 77.5,223.5 77.5,218.5 Z"/></g>
<g><path style="opacity:0.004" fill="#000000" d="M 427.5,219.5 C 428.833,220.167 428.833,220.167 427.5,219.5 Z"/></g>
<g><path style="opacity:1" fill="#d1b08a" d="M 312.5,218.5 C 317.5,218.5 322.5,218.5 327.5,218.5C 327.5,223.5 327.5,228.5 327.5,233.5C 322.5,233.5 317.5,233.5 312.5,233.5C 312.5,228.5 312.5,223.5 312.5,218.5 Z"/></g>
<g><path style="opacity:0.996" fill="#433f40" d="M 358.5,218.5 C 363.833,218.5 369.167,218.5 374.5,218.5C 374.5,223.833 374.5,229.167 374.5,234.5C 379.5,234.5 384.5,234.5 389.5,234.5C 389.5,244.5 389.5,254.5 389.5,264.5C 384.5,264.5 379.5,264.5 374.5,264.5C 374.5,259.5 374.5,254.5 374.5,249.5C 369.167,249.5 363.833,249.5 358.5,249.5C 358.5,239.167 358.5,228.833 358.5,218.5 Z"/></g>
<g><path style="opacity:0.004" fill="#000000" d="M 432.5,222.5 C 433.833,223.167 433.833,223.167 432.5,222.5 Z"/></g>
<g><path style="opacity:1" fill="#443f3f" d="M 93.5,218.5 C 98.5,218.5 103.5,218.5 108.5,218.5C 108.5,239.167 108.5,259.833 108.5,280.5C 103.5,280.5 98.5,280.5 93.5,280.5C 93.5,275.167 93.5,269.833 93.5,264.5C 88.5,264.5 83.5,264.5 78.5,264.5C 78.5,274.833 78.5,285.167 78.5,295.5C 83.6946,295.179 88.6946,295.513 93.5,296.5C 88.1667,296.5 82.8333,296.5 77.5,296.5C 77.5,275.5 77.5,254.5 77.5,233.5C 82.8333,233.5 88.1667,233.5 93.5,233.5C 93.5,228.5 93.5,223.5 93.5,218.5 Z"/></g>
<g><path style="opacity:1" fill="#e3cdc1" d="M 124.5,218.5 C 129.833,218.5 135.167,218.5 140.5,218.5C 140.628,222.881 140.295,227.215 139.5,231.5C 134.465,232.113 129.465,232.779 124.5,233.5C 124.5,228.5 124.5,223.5 124.5,218.5 Z"/></g>
<g><path style="opacity:0.004" fill="#000000" d="M 49.5,226.5 C 50.8333,227.167 50.8333,227.167 49.5,226.5 Z"/></g>
<g><path style="opacity:1" fill="#e5cdbe" d="M 311.5,218.5 C 311.5,223.167 311.5,227.833 311.5,232.5C 306.5,232.5 301.5,232.5 296.5,232.5C 296.5,227.833 296.5,223.167 296.5,218.5C 301.5,218.5 306.5,218.5 311.5,218.5 Z"/></g>
<g><path style="opacity:0.004" fill="#000000" d="M 479.5,238.5 C 480.833,239.167 480.833,239.167 479.5,238.5 Z"/></g>
<g><path style="opacity:1" fill="#ebd1ac" d="M 311.5,218.5 C 311.833,218.5 312.167,218.5 312.5,218.5C 312.5,223.5 312.5,228.5 312.5,233.5C 317.5,233.5 322.5,233.5 327.5,233.5C 327.5,238.833 327.5,244.167 327.5,249.5C 322.167,249.5 316.833,249.5 311.5,249.5C 311.5,244.167 311.5,238.833 311.5,233.5C 306.57,233.197 301.737,233.531 297,234.5C 296.5,244.828 296.334,255.161 296.5,265.5C 285.996,266.23 275.663,266.23 265.5,265.5C 270.695,265.821 275.695,265.487 280.5,264.5C 280.833,264.5 281.167,264.5 281.5,264.5C 286.167,264.5 290.833,264.5 295.5,264.5C 295.5,254.5 295.5,244.5 295.5,234.5C 295.5,234.167 295.5,233.833 295.5,233.5C 296.167,233.5 296.5,233.167 296.5,232.5C 301.5,232.5 306.5,232.5 311.5,232.5C 311.5,227.833 311.5,223.167 311.5,218.5 Z"/></g>
<g><path style="opacity:1" fill="#e4cdc1" d="M 313.5,234.5 C 317.833,234.5 322.167,234.5 326.5,234.5C 326.666,238.514 326.499,242.514 326,246.5C 325.5,247 325,247.5 324.5,248C 320.848,248.499 317.182,248.665 313.5,248.5C 313.5,243.833 313.5,239.167 313.5,234.5 Z"/></g>
<g><path style="opacity:0.004" fill="#000000" d="M 463.5,245.5 C 464.833,246.167 464.833,246.167 463.5,245.5 Z"/></g>
<g><path style="opacity:0.004" fill="#000000" d="M 42.5,246.5 C 43.8333,247.167 43.8333,247.167 42.5,246.5 Z"/></g>
<g><path style="opacity:0.004" fill="#000000" d="M 456.5,247.5 C 457.833,248.167 457.833,248.167 456.5,247.5 Z"/></g>
<g><path style="opacity:0.004" fill="#000000" d="M 48.5,248.5 C 49.8333,249.167 49.8333,249.167 48.5,248.5 Z"/></g>
<g><path style="opacity:1" fill="#f9e3bc" d="M 202.5,232.5 C 202.833,233.167 203.167,233.833 203.5,234.5C 203.5,239.167 203.5,243.833 203.5,248.5C 213.167,248.5 222.833,248.5 232.5,248.5C 232.5,243.5 232.5,238.5 232.5,233.5C 237.933,232.198 243.266,232.198 248.5,233.5C 243.833,233.5 239.167,233.5 234.5,233.5C 234.5,238.833 234.5,244.167 234.5,249.5C 223.654,249.828 212.987,249.494 202.5,248.5C 202.827,243.786 202.493,239.12 201.5,234.5C 197.223,233.394 192.89,233.228 188.5,234C 188,234.5 187.5,235 187,235.5C 186.5,242.158 186.334,248.825 186.5,255.5C 185.345,248.679 185.179,241.679 186,234.5C 186.5,234 187,233.5 187.5,233C 192.489,232.501 197.489,232.334 202.5,232.5 Z"/></g>
<g><path style="opacity:0.004" fill="#000000" d="M 396.5,253.5 C 397.833,254.167 397.833,254.167 396.5,253.5 Z"/></g>
<g><path style="opacity:0.004" fill="#000000" d="M 434.5,261.5 C 435.833,262.167 435.833,262.167 434.5,261.5 Z"/></g>
<g><path style="opacity:0.004" fill="#000000" d="M 51.5,264.5 C 52.8333,265.167 52.8333,265.167 51.5,264.5 Z"/></g>
<g><path style="opacity:1" fill="#f6da75" d="M 139.5,249.5 C 139.833,249.5 140.167,249.5 140.5,249.5C 140.5,254.5 140.5,259.5 140.5,264.5C 145.5,264.5 150.5,264.5 155.5,264.5C 155.5,264.833 155.5,265.167 155.5,265.5C 165.987,266.494 176.654,266.828 187.5,266.5C 187.334,256.494 187.5,246.494 188,236.5C 191.918,234.226 196.085,233.893 200.5,235.5C 201.167,239.982 201.834,244.316 202.5,248.5C 212.987,249.494 223.654,249.828 234.5,249.5C 234.5,244.167 234.5,238.833 234.5,233.5C 239.167,233.5 243.833,233.5 248.5,233.5C 248.179,239.026 248.512,244.36 249.5,249.5C 249.5,254.5 249.5,259.5 249.5,264.5C 254.5,264.5 259.5,264.5 264.5,264.5C 264.5,265.167 264.833,265.5 265.5,265.5C 275.663,266.23 285.996,266.23 296.5,265.5C 296.334,255.161 296.5,244.828 297,234.5C 301.737,233.531 306.57,233.197 311.5,233.5C 311.5,238.833 311.5,244.167 311.5,249.5C 316.305,250.487 321.305,250.821 326.5,250.5C 326.797,254.767 326.464,258.934 325.5,263C 320.582,263.195 315.749,263.695 311,264.5C 310.501,269.489 310.334,274.489 310.5,279.5C 285.5,279.5 260.5,279.5 235.5,279.5C 235.666,274.821 235.499,270.155 235,265.5C 234.5,265 234,264.5 233.5,264C 223.5,263.333 213.5,263.333 203.5,264C 202.944,264.383 202.611,264.883 202.5,265.5C 202.5,270.5 202.5,275.5 202.5,280.5C 177.122,280.824 151.789,280.491 126.5,279.5C 125.334,264.511 125.167,249.511 126,234.5C 130.066,233.536 134.233,233.203 138.5,233.5C 138.179,239.026 138.512,244.36 139.5,249.5 Z"/></g>
<g><path style="opacity:1" fill="#f5dea5" d="M 202.5,248.5 C 201.834,244.316 201.167,239.982 200.5,235.5C 196.085,233.893 191.918,234.226 188,236.5C 187.5,246.494 187.334,256.494 187.5,266.5C 176.654,266.828 165.987,266.494 155.5,265.5C 161.026,265.821 166.36,265.488 171.5,264.5C 172.167,264.5 172.5,264.167 172.5,263.5C 176.683,263.27 181.016,263.27 185.5,263.5C 185.833,260.833 186.167,258.167 186.5,255.5C 186.334,248.825 186.5,242.158 187,235.5C 187.5,235 188,234.5 188.5,234C 192.89,233.228 197.223,233.394 201.5,234.5C 202.493,239.12 202.827,243.786 202.5,248.5 Z"/></g>
<g><path style="opacity:1" fill="#110cb9" d="M 265.5,249.5 C 270.5,249.5 275.5,249.5 280.5,249.5C 280.5,254.5 280.5,259.5 280.5,264.5C 280.5,259.5 280.5,254.5 280.5,249.5C 275.5,249.5 270.5,249.5 265.5,249.5 Z"/></g>
<g><path style="opacity:1" fill="#2a1f76" d="M 250.5,249.5 C 255.167,249.5 259.833,249.5 264.5,249.5C 264.833,249.5 265.167,249.5 265.5,249.5C 265.5,254.5 265.5,259.5 265.5,264.5C 270.5,264.5 275.5,264.5 280.5,264.5C 275.695,265.487 270.695,265.821 265.5,265.5C 264.833,265.5 264.5,265.167 264.5,264.5C 264.5,259.833 264.5,255.167 264.5,250.5C 259.637,250.819 254.97,250.486 250.5,249.5 Z"/></g>
<g><path style="opacity:1" fill="#3725b6" d="M 155.5,249.5 C 160.833,249.5 166.167,249.5 171.5,249.5C 171.5,254.5 171.5,259.5 171.5,264.5C 166.36,265.488 161.026,265.821 155.5,265.5C 155.5,265.167 155.5,264.833 155.5,264.5C 155.5,264.167 155.5,263.833 155.5,263.5C 155.5,258.833 155.5,254.167 155.5,249.5 Z"/></g>
<g><path style="opacity:1" fill="#0101f5" d="M 266.5,250.5 C 270.833,250.5 275.167,250.5 279.5,250.5C 279.5,254.833 279.5,259.167 279.5,263.5C 275.167,263.5 270.833,263.5 266.5,263.5C 266.5,259.167 266.5,254.833 266.5,250.5 Z"/></g>
<g><path style="opacity:1" fill="#0201f4" d="M 156.5,250.5 C 161.167,250.5 165.833,250.5 170.5,250.5C 170.5,254.833 170.5,259.167 170.5,263.5C 165.833,263.5 161.167,263.5 156.5,263.5C 156.5,259.167 156.5,254.833 156.5,250.5 Z"/></g>
<g><path style="opacity:1" fill="#030105" d="M 249.5,249.5 C 249.833,249.5 250.167,249.5 250.5,249.5C 254.97,250.486 259.637,250.819 264.5,250.5C 264.5,255.167 264.5,259.833 264.5,264.5C 259.5,264.5 254.5,264.5 249.5,264.5C 249.5,259.5 249.5,254.5 249.5,249.5 Z"/></g>
<g><path style="opacity:1" fill="#020003" d="M 140.5,249.5 C 140.833,249.5 141.167,249.5 141.5,249.5C 145.634,250.485 149.968,250.818 154.5,250.5C 154.182,255.032 154.515,259.366 155.5,263.5C 155.5,263.833 155.5,264.167 155.5,264.5C 150.5,264.5 145.5,264.5 140.5,264.5C 140.5,259.5 140.5,254.5 140.5,249.5 Z"/></g>
<g><path style="opacity:1" fill="#000041" d="M 141.5,249.5 C 146.167,249.5 150.833,249.5 155.5,249.5C 155.5,254.167 155.5,258.833 155.5,263.5C 154.515,259.366 154.182,255.032 154.5,250.5C 149.968,250.818 145.634,250.485 141.5,249.5 Z"/></g>
<g><path style="opacity:1" fill="#dcddfe" d="M 155.5,233.5 C 156.167,233.5 156.5,233.833 156.5,234.5C 156.5,239.167 156.5,243.833 156.5,248.5C 161.5,248.5 166.5,248.5 171.5,248.5C 172.487,253.305 172.821,258.305 172.5,263.5C 172.5,264.167 172.167,264.5 171.5,264.5C 171.5,259.5 171.5,254.5 171.5,249.5C 166.167,249.5 160.833,249.5 155.5,249.5C 155.5,244.5 155.5,239.5 155.5,234.5C 155.5,234.167 155.5,233.833 155.5,233.5 Z"/></g>
<g><path style="opacity:1" fill="#7771ee" d="M 249.5,234.5 C 254.833,233.167 260.167,233.167 265.5,234.5C 265.5,239.5 265.5,244.5 265.5,249.5C 265.167,249.5 264.833,249.5 264.5,249.5C 264.5,244.5 264.5,239.5 264.5,234.5C 262.833,234.5 261.167,234.5 259.5,234.5C 256.5,234.5 253.5,234.5 250.5,234.5C 250.167,234.5 249.833,234.5 249.5,234.5 Z"/></g>
<g><path style="opacity:1" fill="#100ab3" d="M 249.5,234.5 C 249.833,234.5 250.167,234.5 250.5,234.5C 250.5,239.167 250.5,243.833 250.5,248.5C 254.833,248.5 259.167,248.5 263.5,248.5C 263.5,244.167 263.5,239.833 263.5,235.5C 261.901,235.768 260.568,235.434 259.5,234.5C 261.167,234.5 262.833,234.5 264.5,234.5C 264.5,239.5 264.5,244.5 264.5,249.5C 259.833,249.5 255.167,249.5 250.5,249.5C 250.167,249.5 249.833,249.5 249.5,249.5C 249.5,244.5 249.5,239.5 249.5,234.5 Z"/></g>
<g><path style="opacity:1" fill="#0e09b4" d="M 155.5,234.5 C 155.5,239.5 155.5,244.5 155.5,249.5C 150.833,249.5 146.167,249.5 141.5,249.5C 141.167,249.5 140.833,249.5 140.5,249.5C 140.5,244.5 140.5,239.5 140.5,234.5C 145.5,234.5 150.5,234.5 155.5,234.5 Z"/></g>
<g><path style="opacity:1" fill="#9387db" d="M 139.5,233.5 C 144.833,233.5 150.167,233.5 155.5,233.5C 155.5,233.833 155.5,234.167 155.5,234.5C 150.5,234.5 145.5,234.5 140.5,234.5C 140.5,239.5 140.5,244.5 140.5,249.5C 140.167,249.5 139.833,249.5 139.5,249.5C 139.5,244.167 139.5,238.833 139.5,233.5 Z"/></g>
<g><path style="opacity:1" fill="#0201f4" d="M 250.5,234.5 C 253.5,234.5 256.5,234.5 259.5,234.5C 260.568,235.434 261.901,235.768 263.5,235.5C 263.5,239.833 263.5,244.167 263.5,248.5C 259.167,248.5 254.833,248.5 250.5,248.5C 250.5,243.833 250.5,239.167 250.5,234.5 Z"/></g>
<g><path style="opacity:1" fill="#0201f5" d="M 141.5,235.5 C 145.833,235.5 150.167,235.5 154.5,235.5C 154.5,239.833 154.5,244.167 154.5,248.5C 150.167,248.5 145.833,248.5 141.5,248.5C 141.5,244.167 141.5,239.833 141.5,235.5 Z"/></g>
<g><path style="opacity:1" fill="#f6e4dd" d="M 280.5,234.5 C 285.5,234.5 290.5,234.5 295.5,234.5C 295.5,244.5 295.5,254.5 295.5,264.5C 290.833,264.5 286.167,264.5 281.5,264.5C 281.25,254.497 280.916,244.497 280.5,234.5 Z"/></g>
<g><path style="opacity:1" fill="#f8f7fc" d="M 265.5,234.5 C 270.5,234.5 275.5,234.5 280.5,234.5C 280.916,244.497 281.25,254.497 281.5,264.5C 281.167,264.5 280.833,264.5 280.5,264.5C 275.5,264.5 270.5,264.5 265.5,264.5C 265.5,259.5 265.5,254.5 265.5,249.5C 265.5,244.5 265.5,239.5 265.5,234.5 Z"/></g>
<g><path style="opacity:1" fill="#f6e4db" d="M 232.5,233.5 C 232.5,238.5 232.5,243.5 232.5,248.5C 222.833,248.5 213.167,248.5 203.5,248.5C 203.5,243.833 203.5,239.167 203.5,234.5C 213.114,233.551 222.781,233.218 232.5,233.5 Z"/></g>
<g><path style="opacity:1" fill="#fdfdfc" d="M 171.5,248.5 C 166.5,248.5 161.5,248.5 156.5,248.5C 156.5,243.833 156.5,239.167 156.5,234.5C 161.453,233.671 166.453,233.337 171.5,233.5C 171.5,238.5 171.5,243.5 171.5,248.5 Z"/></g>
<g><path style="opacity:1" fill="#f6e4dc" d="M 218.5,266.5 C 218.5,281.5 218.5,296.5 218.5,311.5C 223.5,311.5 228.5,311.5 233.5,311.5C 233.5,301.5 233.5,291.5 233.5,281.5C 259.5,281.5 285.5,281.5 311.5,281.5C 312.607,286.081 312.773,290.748 312,295.5C 306.928,296.471 301.762,296.805 296.5,296.5C 296.5,306.833 296.5,317.167 296.5,327.5C 291.167,327.5 285.833,327.5 280.5,327.5C 280.5,337.833 280.5,348.167 280.5,358.5C 275.167,358.5 269.833,358.5 264.5,358.5C 264.5,363.5 264.5,368.5 264.5,373.5C 261.5,373.5 258.5,373.5 255.5,373.5C 255.649,372.448 255.483,371.448 255,370.5C 252.891,370.566 250.725,370.899 248.5,371.5C 246.518,375.048 246.184,378.714 247.5,382.5C 247.023,383.478 246.357,384.311 245.5,385C 246.634,386.016 246.301,386.683 244.5,387C 226.353,388.114 208.02,388.614 189.5,388.5C 189.241,384.76 189.574,381.094 190.5,377.5C 188.961,371.757 185.461,369.757 180,371.5C 177.455,369.814 174.622,368.814 171.5,368.5C 171.784,365.223 171.451,362.057 170.5,359C 165.511,358.501 160.511,358.334 155.5,358.5C 155.5,348.167 155.5,337.833 155.5,327.5C 150.5,327.5 145.5,327.5 140.5,327.5C 140.5,322.167 140.5,316.833 140.5,311.5C 135.167,311.5 129.833,311.5 124.5,311.5C 124.5,301.167 124.5,290.833 124.5,280.5C 150.759,281.49 177.092,281.824 203.5,281.5C 203.275,276.752 203.775,272.085 205,267.5C 209.401,266.533 213.901,266.2 218.5,266.5 Z"/></g>
<g><path style="opacity:1" fill="#e4cdc0" d="M 327.5,265.5 C 327.5,286.167 327.5,306.833 327.5,327.5C 322.5,327.5 317.5,327.5 312.5,327.5C 311.512,332.64 311.179,337.974 311.5,343.5C 306.5,343.5 301.5,343.5 296.5,343.5C 296.5,348.5 296.5,353.5 296.5,358.5C 291.167,358.5 285.833,358.5 280.5,358.5C 280.5,348.167 280.5,337.833 280.5,327.5C 285.833,327.5 291.167,327.5 296.5,327.5C 296.5,317.167 296.5,306.833 296.5,296.5C 301.762,296.805 306.928,296.471 312,295.5C 312.773,290.748 312.607,286.081 311.5,281.5C 311.5,281.167 311.5,280.833 311.5,280.5C 312.141,275.664 312.808,270.831 313.5,266C 318.155,265.501 322.821,265.334 327.5,265.5 Z"/></g>
<g><path style="opacity:0.004" fill="#000000" d="M 18.5,276.5 C 19.8333,277.167 19.8333,277.167 18.5,276.5 Z"/></g>
<g><path style="opacity:0.004" fill="#000000" d="M 6.5,277.5 C 7.83333,278.167 7.83333,278.167 6.5,277.5 Z"/></g>
<g><path style="opacity:0.004" fill="#000000" d="M 31.5,279.5 C 32.8333,280.167 32.8333,280.167 31.5,279.5 Z"/></g>
<g><path style="opacity:1" fill="#e3cdc1" d="M 218.5,266.5 C 223.167,266.5 227.833,266.5 232.5,266.5C 232.221,271.595 232.555,276.595 233.5,281.5C 233.5,291.5 233.5,301.5 233.5,311.5C 228.5,311.5 223.5,311.5 218.5,311.5C 218.5,296.5 218.5,281.5 218.5,266.5 Z"/></g>
<g><path style="opacity:1" fill="#f1d98b" d="M 311.5,249.5 C 316.833,249.5 322.167,249.5 327.5,249.5C 327.5,254.833 327.5,260.167 327.5,265.5C 322.821,265.334 318.155,265.501 313.5,266C 312.808,270.831 312.141,275.664 311.5,280.5C 285.831,280.667 260.165,280.5 234.5,280C 233.531,275.263 233.197,270.43 233.5,265.5C 223.167,265.5 212.833,265.5 202.5,265.5C 202.611,264.883 202.944,264.383 203.5,264C 213.5,263.333 223.5,263.333 233.5,264C 234,264.5 234.5,265 235,265.5C 235.499,270.155 235.666,274.821 235.5,279.5C 260.5,279.5 285.5,279.5 310.5,279.5C 310.334,274.489 310.501,269.489 311,264.5C 315.749,263.695 320.582,263.195 325.5,263C 326.464,258.934 326.797,254.767 326.5,250.5C 321.305,250.821 316.305,250.487 311.5,249.5 Z"/></g>
<g><path style="opacity:1" fill="#f3deab" d="M 139.5,231.5 C 139.5,232.167 139.5,232.833 139.5,233.5C 139.5,238.833 139.5,244.167 139.5,249.5C 138.512,244.36 138.179,239.026 138.5,233.5C 134.233,233.203 130.066,233.536 126,234.5C 125.167,249.511 125.334,264.511 126.5,279.5C 151.789,280.491 177.122,280.824 202.5,280.5C 202.5,275.5 202.5,270.5 202.5,265.5C 212.833,265.5 223.167,265.5 233.5,265.5C 233.197,270.43 233.531,275.263 234.5,280C 260.165,280.5 285.831,280.667 311.5,280.5C 311.5,280.833 311.5,281.167 311.5,281.5C 285.5,281.5 259.5,281.5 233.5,281.5C 232.555,276.595 232.221,271.595 232.5,266.5C 227.833,266.5 223.167,266.5 218.5,266.5C 213.901,266.2 209.401,266.533 205,267.5C 203.775,272.085 203.275,276.752 203.5,281.5C 177.092,281.824 150.759,281.49 124.5,280.5C 124.5,264.833 124.5,249.167 124.5,233.5C 129.465,232.779 134.465,232.113 139.5,231.5 Z"/></g>
<g><path style="opacity:0.004" fill="#000000" d="M 444.5,280.5 C 445.833,281.167 445.833,281.167 444.5,280.5 Z"/></g>
<g><path style="opacity:0.004" fill="#000000" d="M 489.5,293.5 C 490.833,294.167 490.833,294.167 489.5,293.5 Z"/></g>
<g><path style="opacity:0.004" fill="#000000" d="M 430.5,294.5 C 431.833,295.167 431.833,295.167 430.5,294.5 Z"/></g>
<g><path style="opacity:0.004" fill="#000000" d="M 428.5,300.5 C 429.833,301.167 429.833,301.167 428.5,300.5 Z"/></g>
<g><path style="opacity:0.004" fill="#000000" d="M 427.5,304.5 C 428.833,305.167 428.833,305.167 427.5,304.5 Z"/></g>
<g><path style="opacity:1" fill="#b5905b" d="M 77.5,218.5 C 77.5,223.5 77.5,228.5 77.5,233.5C 77.5,254.5 77.5,275.5 77.5,296.5C 81.7147,298.436 86.3814,299.103 91.5,298.5C 91.5,303.833 91.5,309.167 91.5,314.5C 97.5,314.5 103.5,314.5 109.5,314.5C 109.503,334.012 109.169,353.346 108.5,372.5C 104.164,373.634 99.8307,373.634 95.5,372.5C 95.056,368.946 95.056,365.279 95.5,361.5C 95.3601,359.97 94.6935,358.97 93.5,358.5C 88.1667,358.5 82.8333,358.5 77.5,358.5C 77.5,353.5 77.5,348.5 77.5,343.5C 77.5,338.167 77.5,332.833 77.5,327.5C 72.5,327.5 67.5,327.5 62.5,327.5C 62.5,280.833 62.5,234.167 62.5,187.5C 67.3054,186.513 72.3054,186.179 77.5,186.5C 78.4872,181.695 78.8205,176.695 78.5,171.5C 83.43,171.803 88.2633,171.469 93,170.5C 93.8483,161 94.8483,151.667 96,142.5C 97.1271,148.356 97.9604,154.356 98.5,160.5C 100.046,154.961 100.88,149.294 101,143.5C 101.318,141.939 102.151,140.772 103.5,140C 103.167,139.667 102.833,139.333 102.5,139C 104.788,136.928 106.454,134.428 107.5,131.5C 109.747,130.626 112.08,130.292 114.5,130.5C 114.408,127.641 114.075,125.141 113.5,123C 114.249,121.266 114.749,119.433 115,117.5C 116.796,119.514 117.296,121.681 116.5,124C 118.473,124.495 120.473,124.662 122.5,124.5C 122.5,129.167 122.5,133.833 122.5,138.5C 118.78,138.436 115.114,137.936 111.5,137C 109.349,134.979 107.849,135.479 107,138.5C 106.5,159.164 106.333,179.831 106.5,200.5C 101.541,200.265 96.7079,200.265 92,200.5C 91.5006,205.823 91.334,211.156 91.5,216.5C 86.7858,216.647 82.1191,216.314 77.5,215.5C 77.5,216.5 77.5,217.5 77.5,218.5 Z"/></g>
<g><path style="opacity:0.004" fill="#000000" d="M 45.5,310.5 C 46.8333,311.167 46.8333,311.167 45.5,310.5 Z"/></g>
<g><path style="opacity:1" fill="#a88e5f" d="M 77.5,296.5 C 82.8333,296.5 88.1667,296.5 93.5,296.5C 93.5,301.833 93.5,307.167 93.5,312.5C 103.833,312.5 114.167,312.5 124.5,312.5C 124.5,317.5 124.5,322.5 124.5,327.5C 129.833,327.5 135.167,327.5 140.5,327.5C 140.5,338.167 140.5,348.833 140.5,359.5C 145.5,359.5 150.5,359.5 155.5,359.5C 155.5,364.5 155.5,369.5 155.5,374.5C 160.833,374.5 166.167,374.5 171.5,374.5C 176.5,374.5 181.5,374.5 186.5,374.5C 186.179,380.026 186.512,385.36 187.5,390.5C 187.5,395.5 187.5,400.5 187.5,405.5C 182.167,405.5 176.833,405.5 171.5,405.5C 171.5,410.833 171.5,416.167 171.5,421.5C 166.167,421.5 160.833,421.5 155.5,421.5C 155.5,426.5 155.5,431.5 155.5,436.5C 150.167,436.5 144.833,436.5 139.5,436.5C 140.445,431.595 140.779,426.595 140.5,421.5C 135.167,421.5 129.833,421.5 124.5,421.5C 124.5,416.167 124.5,410.833 124.5,405.5C 119.5,405.5 114.5,405.5 109.5,405.5C 109.821,400.305 109.487,395.305 108.5,390.5C 108.5,385.167 108.5,379.833 108.5,374.5C 103.5,374.5 98.5,374.5 93.5,374.5C 93.5,369.167 93.5,363.833 93.5,358.5C 94.6935,358.97 95.3601,359.97 95.5,361.5C 95.056,365.279 95.056,368.946 95.5,372.5C 99.8307,373.634 104.164,373.634 108.5,372.5C 109.169,353.346 109.503,334.012 109.5,314.5C 103.5,314.5 97.5,314.5 91.5,314.5C 91.5,309.167 91.5,303.833 91.5,298.5C 86.3814,299.103 81.7147,298.436 77.5,296.5 Z"/></g>
<g><path style="opacity:1" fill="#e4cebf" d="M 124.5,311.5 C 129.833,311.5 135.167,311.5 140.5,311.5C 140.5,316.833 140.5,322.167 140.5,327.5C 135.167,327.5 129.833,327.5 124.5,327.5C 124.5,322.5 124.5,317.5 124.5,312.5C 124.5,312.167 124.5,311.833 124.5,311.5 Z"/></g>
<g><path style="opacity:0.004" fill="#000000" d="M 431.5,316.5 C 432.833,317.167 432.833,317.167 431.5,316.5 Z"/></g>
<g><path style="opacity:0.976" fill="#090504" d="M 390.5,233.5 C 391.18,250.372 391.847,267.372 392.5,284.5C 392.116,298.548 391.616,312.548 391,326.5C 389.174,328.074 387.007,328.907 384.5,329C 381.563,328.989 378.73,329.155 376,329.5C 375.826,334.684 375.326,339.684 374.5,344.5C 374.5,344.167 374.5,343.833 374.5,343.5C 374.5,338.167 374.5,332.833 374.5,327.5C 374.5,327.167 374.5,326.833 374.5,326.5C 374.5,321.5 374.5,316.5 374.5,311.5C 379.833,311.5 385.167,311.5 390.5,311.5C 390.5,285.5 390.5,259.5 390.5,233.5 Z"/></g>
<g><path style="opacity:0.004" fill="#000000" d="M 7.5,319.5 C 8.83333,320.167 8.83333,320.167 7.5,319.5 Z"/></g>
<g><path style="opacity:0.004" fill="#000000" d="M 495.5,319.5 C 496.833,320.167 496.833,320.167 495.5,319.5 Z"/></g>
<g><path style="opacity:0.004" fill="#000000" d="M 55.5,320.5 C 56.8333,321.167 56.8333,321.167 55.5,320.5 Z"/></g>
<g><path style="opacity:0.004" fill="#000000" d="M 15.5,325.5 C 16.8333,326.167 16.8333,326.167 15.5,325.5 Z"/></g>
<g><path style="opacity:1" fill="#e4b2b5" d="M 187.5,327.5 C 187.5,332.5 187.5,337.5 187.5,342.5C 192.5,342.5 197.5,342.5 202.5,342.5C 202.5,337.5 202.5,332.5 202.5,327.5C 218.167,327.5 233.833,327.5 249.5,327.5C 249.5,332.833 249.5,338.167 249.5,343.5C 228.5,343.5 207.5,343.5 186.5,343.5C 186.179,337.974 186.512,332.64 187.5,327.5 Z"/></g>
<g><path style="opacity:1" fill="#d698a0" d="M 187.5,327.5 C 192.5,327.5 197.5,327.5 202.5,327.5C 202.5,332.5 202.5,337.5 202.5,342.5C 197.5,342.5 192.5,342.5 187.5,342.5C 187.5,337.5 187.5,332.5 187.5,327.5 Z"/></g>
<g><path style="opacity:1" fill="#6f5838" d="M 62.5,187.5 C 62.5,234.167 62.5,280.833 62.5,327.5C 67.5,327.5 72.5,327.5 77.5,327.5C 77.5,332.833 77.5,338.167 77.5,343.5C 72.2384,343.805 67.0717,343.471 62,342.5C 61.1683,290.665 61.3349,238.998 62.5,187.5 Z"/></g>
<g><path style="opacity:0.004" fill="#000000" d="M 459.5,336.5 C 460.833,337.167 460.833,337.167 459.5,336.5 Z"/></g>
<g><path style="opacity:0.004" fill="#000000" d="M 411.5,340.5 C 412.833,341.167 412.833,341.167 411.5,340.5 Z"/></g>
<g><path style="opacity:1" fill="#bfa087" d="M 312.5,327.5 C 312.448,343.316 312.448,358.983 312.5,374.5C 311.513,379.305 311.179,384.305 311.5,389.5C 301.167,389.5 290.833,389.5 280.5,389.5C 280.5,394.833 280.5,400.167 280.5,405.5C 249.5,405.5 218.5,405.5 187.5,405.5C 187.5,400.5 187.5,395.5 187.5,390.5C 208.167,390.5 228.833,390.5 249.5,390.5C 249.5,385.167 249.5,379.833 249.5,374.5C 259.833,374.5 270.167,374.5 280.5,374.5C 280.5,369.167 280.5,363.833 280.5,358.5C 285.833,358.5 291.167,358.5 296.5,358.5C 296.5,353.5 296.5,348.5 296.5,343.5C 301.5,343.5 306.5,343.5 311.5,343.5C 311.179,337.974 311.512,332.64 312.5,327.5 Z"/></g>
<g><path style="opacity:0.004" fill="#000000" d="M 482.5,345.5 C 483.833,346.167 483.833,346.167 482.5,345.5 Z"/></g>
<g><path style="opacity:0.004" fill="#000000" d="M 459.5,347.5 C 460.833,348.167 460.833,348.167 459.5,347.5 Z"/></g>
<g><path style="opacity:0.004" fill="#000000" d="M 492.5,348.5 C 493.833,349.167 493.833,349.167 492.5,348.5 Z"/></g>
<g><path style="opacity:0.004" fill="#000000" d="M 483.5,349.5 C 484.833,350.167 484.833,350.167 483.5,349.5 Z"/></g>
<g><path style="opacity:0.004" fill="#000000" d="M 391.5,352.5 C 392.833,353.167 392.833,353.167 391.5,352.5 Z"/></g>
<g><path style="opacity:0.004" fill="#000000" d="M 377.5,356.5 C 378.833,357.167 378.833,357.167 377.5,356.5 Z"/></g>
<g><path style="opacity:0.004" fill="#000000" d="M 42.5,359.5 C 43.8333,360.167 43.8333,360.167 42.5,359.5 Z"/></g>
<g><path style="opacity:0.356" fill="#41301b" d="M 374.5,343.5 C 374.5,343.833 374.5,344.167 374.5,344.5C 369.833,344.5 365.167,344.5 360.5,344.5C 360.5,349.167 360.5,353.833 360.5,358.5C 359.833,363.833 359.167,369.167 358.5,374.5C 358.5,369.167 358.5,363.833 358.5,358.5C 358.5,353.5 358.5,348.5 358.5,343.5C 363.833,343.5 369.167,343.5 374.5,343.5 Z"/></g>
<g><path style="opacity:1" fill="#e3cdbe" d="M 140.5,327.5 C 145.5,327.5 150.5,327.5 155.5,327.5C 155.5,337.833 155.5,348.167 155.5,358.5C 160.511,358.334 165.511,358.501 170.5,359C 171.451,362.057 171.784,365.223 171.5,368.5C 171.5,370.5 171.5,372.5 171.5,374.5C 166.167,374.5 160.833,374.5 155.5,374.5C 155.5,369.5 155.5,364.5 155.5,359.5C 150.5,359.5 145.5,359.5 140.5,359.5C 140.5,348.833 140.5,338.167 140.5,327.5 Z"/></g>
<g><path style="opacity:1" fill="#765f3d" d="M 358.5,358.5 C 358.5,363.833 358.5,369.167 358.5,374.5C 353.5,374.5 348.5,374.5 343.5,374.5C 343.5,369.167 343.5,363.833 343.5,358.5C 348.5,358.5 353.5,358.5 358.5,358.5 Z"/></g>
<g><path style="opacity:1" fill="#765f3d" d="M 77.5,358.5 C 82.8333,358.5 88.1667,358.5 93.5,358.5C 93.5,363.833 93.5,369.167 93.5,374.5C 93.5,374.833 93.5,375.167 93.5,375.5C 88.2599,374.551 82.9265,374.218 77.5,374.5C 77.5,369.167 77.5,363.833 77.5,358.5 Z"/></g>
<g><path style="opacity:0.004" fill="#000000" d="M 11.5,368.5 C 12.8333,369.167 12.8333,369.167 11.5,368.5 Z"/></g>
<g><path style="opacity:0.004" fill="#000000" d="M 457.5,369.5 C 458.833,370.167 458.833,370.167 457.5,369.5 Z"/></g>
<g><path style="opacity:0.004" fill="#000000" d="M 468.5,369.5 C 469.833,370.167 469.833,370.167 468.5,369.5 Z"/></g>
<g><path style="opacity:0.004" fill="#000000" d="M 452.5,372.5 C 453.833,373.167 453.833,373.167 452.5,372.5 Z"/></g>
<g><path style="opacity:0.004" fill="#000000" d="M 467.5,376.5 C 468.833,377.167 468.833,377.167 467.5,376.5 Z"/></g>
<g><path style="opacity:1" fill="#272324" d="M 312.5,374.5 C 317.5,374.5 322.5,374.5 327.5,374.5C 327.5,384.833 327.5,395.167 327.5,405.5C 327.5,410.833 327.5,416.167 327.5,421.5C 332.833,421.5 338.167,421.5 343.5,421.5C 338.695,422.487 333.695,422.821 328.5,422.5C 328.174,426.884 328.508,431.217 329.5,435.5C 334.113,436.279 338.78,436.779 343.5,437C 344.167,441.667 344.833,446.333 345.5,451C 355.167,451.333 364.833,451.667 374.5,452C 374.996,457.007 375.329,462.007 375.5,467C 390.854,468.474 406.187,468.974 421.5,468.5C 421.5,478.833 421.5,489.167 421.5,499.5C 296.5,499.5 171.5,499.5 46.5,499.5C 45.1194,494.493 45.2861,489.493 47,484.5C 56.7562,483.68 66.5895,483.18 76.5,483C 77.4692,478.263 77.8025,473.43 77.5,468.5C 98.154,468.599 118.821,468.266 139.5,467.5C 139.334,463.154 139.501,458.821 140,454.5C 140.5,454 141,453.5 141.5,453C 146.086,452.803 150.586,452.303 155,451.5C 155.499,446.845 155.666,442.179 155.5,437.5C 150.637,437.181 145.97,437.514 141.5,438.5C 136.065,437.877 130.732,437.21 125.5,436.5C 130.167,436.5 134.833,436.5 139.5,436.5C 144.833,436.5 150.167,436.5 155.5,436.5C 155.5,431.5 155.5,426.5 155.5,421.5C 160.833,421.5 166.167,421.5 171.5,421.5C 171.5,416.167 171.5,410.833 171.5,405.5C 176.833,405.5 182.167,405.5 187.5,405.5C 218.5,405.5 249.5,405.5 280.5,405.5C 281.487,400.695 281.821,395.695 281.5,390.5C 291.833,390.5 302.167,390.5 312.5,390.5C 312.5,385.167 312.5,379.833 312.5,374.5 Z"/></g>
<g><path style="opacity:1" fill="#a5895c" d="M 312.5,327.5 C 317.5,327.5 322.5,327.5 327.5,327.5C 327.168,338.187 327.501,348.854 328.5,359.5C 331.91,359.128 335.41,359.128 339,359.5C 340,358.833 341,358.167 342,357.5C 342.499,352.845 342.666,348.179 342.5,343.5C 352.832,343.125 363.165,342.792 373.5,342.5C 373.5,337.833 373.5,333.167 373.5,328.5C 363.319,328.827 353.319,328.494 343.5,327.5C 353.833,327.5 364.167,327.5 374.5,327.5C 374.5,332.833 374.5,338.167 374.5,343.5C 369.167,343.5 363.833,343.5 358.5,343.5C 358.5,348.5 358.5,353.5 358.5,358.5C 353.5,358.5 348.5,358.5 343.5,358.5C 343.5,363.833 343.5,369.167 343.5,374.5C 343.5,384.833 343.5,395.167 343.5,405.5C 338.167,405.5 332.833,405.5 327.5,405.5C 327.5,395.167 327.5,384.833 327.5,374.5C 322.5,374.5 317.5,374.5 312.5,374.5C 312.448,358.983 312.448,343.316 312.5,327.5 Z"/></g>
<g><path style="opacity:0.004" fill="#000000" d="M 61.5,381.5 C 62.8333,382.167 62.8333,382.167 61.5,381.5 Z"/></g>
<g><path style="opacity:1" fill="#efdacc" d="M 280.5,358.5 C 280.5,363.833 280.5,369.167 280.5,374.5C 270.167,374.5 259.833,374.5 249.5,374.5C 249.5,379.833 249.5,385.167 249.5,390.5C 228.833,390.5 208.167,390.5 187.5,390.5C 186.512,385.36 186.179,380.026 186.5,374.5C 181.5,374.5 176.5,374.5 171.5,374.5C 171.5,372.5 171.5,370.5 171.5,368.5C 174.622,368.814 177.455,369.814 180,371.5C 185.461,369.757 188.961,371.757 190.5,377.5C 189.574,381.094 189.241,384.76 189.5,388.5C 208.02,388.614 226.353,388.114 244.5,387C 246.301,386.683 246.634,386.016 245.5,385C 246.357,384.311 247.023,383.478 247.5,382.5C 246.184,378.714 246.518,375.048 248.5,371.5C 250.725,370.899 252.891,370.566 255,370.5C 255.483,371.448 255.649,372.448 255.5,373.5C 258.5,373.5 261.5,373.5 264.5,373.5C 264.5,368.5 264.5,363.5 264.5,358.5C 269.833,358.5 275.167,358.5 280.5,358.5 Z"/></g>
<g><path style="opacity:0.004" fill="#000000" d="M 400.5,384.5 C 401.833,385.167 401.833,385.167 400.5,384.5 Z"/></g>
<g><path style="opacity:1" fill="#917a53" d="M 93.5,374.5 C 98.5,374.5 103.5,374.5 108.5,374.5C 108.5,379.833 108.5,385.167 108.5,390.5C 103.5,390.5 98.5,390.5 93.5,390.5C 92.2477,385.491 92.2477,380.491 93.5,375.5C 93.5,375.167 93.5,374.833 93.5,374.5 Z"/></g>
<g><path style="opacity:0.004" fill="#000000" d="M 370.5,386.5 C 371.833,387.167 371.833,387.167 370.5,386.5 Z"/></g>
<g><path style="opacity:0.004" fill="#000000" d="M 434.5,386.5 C 435.833,387.167 435.833,387.167 434.5,386.5 Z"/></g>
<g><path style="opacity:1" fill="#746359" d="M 312.5,374.5 C 312.5,379.833 312.5,385.167 312.5,390.5C 302.167,390.5 291.833,390.5 281.5,390.5C 281.821,395.695 281.487,400.695 280.5,405.5C 280.5,400.167 280.5,394.833 280.5,389.5C 290.833,389.5 301.167,389.5 311.5,389.5C 311.179,384.305 311.513,379.305 312.5,374.5 Z"/></g>
<g><path style="opacity:0.004" fill="#000000" d="M 441.5,389.5 C 442.833,390.167 442.833,390.167 441.5,389.5 Z"/></g>
<g><path style="opacity:0.004" fill="#000000" d="M 43.5,392.5 C 44.8333,393.167 44.8333,393.167 43.5,392.5 Z"/></g>
<g><path style="opacity:0.218" fill="#0a0400" d="M 360.5,358.5 C 360.5,364.167 360.5,369.833 360.5,375.5C 355.061,375.822 349.727,375.822 344.5,375.5C 344.781,388.991 345.114,402.324 345.5,415.5C 345.639,417.883 344.972,419.883 343.5,421.5C 343.5,416.167 343.5,410.833 343.5,405.5C 343.5,395.167 343.5,384.833 343.5,374.5C 348.5,374.5 353.5,374.5 358.5,374.5C 359.167,369.167 359.833,363.833 360.5,358.5 Z"/></g>
<g><path style="opacity:0.004" fill="#000000" d="M 67.5,395.5 C 68.8333,396.167 68.8333,396.167 67.5,395.5 Z"/></g>
<g><path style="opacity:0.004" fill="#000000" d="M 38.5,396.5 C 39.8333,397.167 39.8333,397.167 38.5,396.5 Z"/></g>
<g><path style="opacity:0.004" fill="#000000" d="M 45.5,396.5 C 46.8333,397.167 46.8333,397.167 45.5,396.5 Z"/></g>
<g><path style="opacity:0.004" fill="#000000" d="M 367.5,396.5 C 368.833,397.167 368.833,397.167 367.5,396.5 Z"/></g>
<g><path style="opacity:0.004" fill="#000000" d="M 402.5,399.5 C 403.833,400.167 403.833,400.167 402.5,399.5 Z"/></g>
<g><path style="opacity:0.004" fill="#000000" d="M 72.5,401.5 C 73.8333,402.167 73.8333,402.167 72.5,401.5 Z"/></g>
<g><path style="opacity:1" fill="#6a5b3e" d="M 327.5,405.5 C 332.833,405.5 338.167,405.5 343.5,405.5C 343.5,410.833 343.5,416.167 343.5,421.5C 338.167,421.5 332.833,421.5 327.5,421.5C 327.5,416.167 327.5,410.833 327.5,405.5 Z"/></g>
<g><path style="opacity:0.004" fill="#000000" d="M 74.5,409.5 C 75.8333,410.167 75.8333,410.167 74.5,409.5 Z"/></g>
<g><path style="opacity:0.004" fill="#000000" d="M 21.5,411.5 C 22.8333,412.167 22.8333,412.167 21.5,411.5 Z"/></g>
<g><path style="opacity:0.004" fill="#000000" d="M 426.5,414.5 C 427.833,415.167 427.833,415.167 426.5,414.5 Z"/></g>
<g><path style="opacity:0.004" fill="#000000" d="M 455.5,419.5 C 456.833,420.167 456.833,420.167 455.5,419.5 Z"/></g>
<g><path style="opacity:1" fill="#927c54" d="M 108.5,390.5 C 109.487,395.305 109.821,400.305 109.5,405.5C 114.5,405.5 119.5,405.5 124.5,405.5C 124.5,410.833 124.5,416.167 124.5,421.5C 129.833,421.5 135.167,421.5 140.5,421.5C 140.779,426.595 140.445,431.595 139.5,436.5C 134.833,436.5 130.167,436.5 125.5,436.5C 124.81,431.767 124.144,426.934 123.5,422C 118.582,421.805 113.749,421.305 109,420.5C 108.5,410.506 108.334,400.506 108.5,390.5 Z"/></g>
<g><path style="opacity:0.004" fill="#000000" d="M 405.5,423.5 C 406.833,424.167 406.833,424.167 405.5,423.5 Z"/></g>
<g><path style="opacity:0.004" fill="#000000" d="M 433.5,425.5 C 434.833,426.167 434.833,426.167 433.5,425.5 Z"/></g>
<g><path style="opacity:0.004" fill="#000000" d="M 102.5,426.5 C 103.833,427.167 103.833,427.167 102.5,426.5 Z"/></g>
<g><path style="opacity:0.004" fill="#000000" d="M 359.5,429.5 C 360.833,430.167 360.833,430.167 359.5,429.5 Z"/></g>
<g><path style="opacity:0.004" fill="#000000" d="M 352.5,430.5 C 353.833,431.167 353.833,431.167 352.5,430.5 Z"/></g>
<g><path style="opacity:0.004" fill="#000000" d="M 101.5,431.5 C 102.833,432.167 102.833,432.167 101.5,431.5 Z"/></g>
<g><path style="opacity:0.004" fill="#000000" d="M 94.5,433.5 C 95.8333,434.167 95.8333,434.167 94.5,433.5 Z"/></g>
<g><path style="opacity:0.004" fill="#000000" d="M 12.5,435.5 C 13.8333,436.167 13.8333,436.167 12.5,435.5 Z"/></g>
<g><path style="opacity:0.004" fill="#000000" d="M 45.5,437.5 C 46.8333,438.167 46.8333,438.167 45.5,437.5 Z"/></g>
<g><path style="opacity:0.004" fill="#000000" d="M 141.5,438.5 C 142.833,439.167 142.833,439.167 141.5,438.5 Z"/></g>
<g><path style="opacity:0.004" fill="#000000" d="M 11.5,439.5 C 12.8333,440.167 12.8333,440.167 11.5,439.5 Z"/></g>
<g><path style="opacity:0.004" fill="#000000" d="M 72.5,441.5 C 73.8333,442.167 73.8333,442.167 72.5,441.5 Z"/></g>
<g><path style="opacity:0.004" fill="#000000" d="M 391.5,441.5 C 392.833,442.167 392.833,442.167 391.5,441.5 Z"/></g>
<g><path style="opacity:0.004" fill="#000000" d="M 123.5,443.5 C 124.833,444.167 124.833,444.167 123.5,443.5 Z"/></g>
<g><path style="opacity:0.004" fill="#000000" d="M 368.5,446.5 C 369.833,447.167 369.833,447.167 368.5,446.5 Z"/></g>
<g><path style="opacity:0.004" fill="#000000" d="M 81.5,450.5 C 82.8333,451.167 82.8333,451.167 81.5,450.5 Z"/></g>
<g><path style="opacity:0.004" fill="#000000" d="M 0.5,454.5 C 1.83333,455.167 1.83333,455.167 0.5,454.5 Z"/></g>
<g><path style="opacity:0.004" fill="#000000" d="M 105.5,455.5 C 106.833,456.167 106.833,456.167 105.5,455.5 Z"/></g>
<g><path style="opacity:0.004" fill="#000000" d="M 386.5,455.5 C 387.833,456.167 387.833,456.167 386.5,455.5 Z"/></g>
<g><path style="opacity:0.004" fill="#000000" d="M 80.5,456.5 C 81.8333,457.167 81.8333,457.167 80.5,456.5 Z"/></g>
<g><path style="opacity:0.004" fill="#000000" d="M 97.5,461.5 C 98.8333,462.167 98.8333,462.167 97.5,461.5 Z"/></g>
<g><path style="opacity:0.004" fill="#000000" d="M 127.5,466.5 C 128.833,467.167 128.833,467.167 127.5,466.5 Z"/></g>
<g><path style="opacity:0.004" fill="#000000" d="M 33.5,474.5 C 34.8333,475.167 34.8333,475.167 33.5,474.5 Z"/></g>
<g><path style="opacity:0.004" fill="#000000" d="M 48.5,474.5 C 49.8333,475.167 49.8333,475.167 48.5,474.5 Z"/></g>
<g><path style="opacity:0.004" fill="#000000" d="M 462.5,479.5 C 463.833,480.167 463.833,480.167 462.5,479.5 Z"/></g>
<g><path style="opacity:0.004" fill="#000000" d="M 452.5,485.5 C 453.833,486.167 453.833,486.167 452.5,485.5 Z"/></g>
<g><path style="opacity:0.004" fill="#000000" d="M 443.5,496.5 C 444.833,497.167 444.833,497.167 443.5,496.5 Z"/></g>
</svg>
